<mxfile host="app.diagrams.net" modified="2021-11-11T04:21:30.703Z" agent="5.0 (Windows NT 10.0; Win64; x64) AppleWebKit/537.36 (KHTML, like Gecko) Chrome/94.0.4606.81 Safari/537.36 OPR/80.0.4170.91" etag="bA5mA9GfMft2hMezxNr0" version="15.7.3" type="github">
  <diagram id="C5RBs43oDa-KdzZeNtuy" name="Page-1">
    <mxGraphModel dx="1381" dy="756" grid="1" gridSize="10" guides="1" tooltips="1" connect="1" arrows="1" fold="1" page="1" pageScale="1" pageWidth="827" pageHeight="1169" math="0" shadow="0">
      <root>
        <mxCell id="WIyWlLk6GJQsqaUBKTNV-0" />
        <mxCell id="WIyWlLk6GJQsqaUBKTNV-1" parent="WIyWlLk6GJQsqaUBKTNV-0" />
        <mxCell id="Q-1Xya8EfabUiZOA57DP-1" style="edgeStyle=orthogonalEdgeStyle;rounded=0;orthogonalLoop=1;jettySize=auto;html=1;" edge="1" parent="WIyWlLk6GJQsqaUBKTNV-1" source="Q-1Xya8EfabUiZOA57DP-0" target="Q-1Xya8EfabUiZOA57DP-17">
          <mxGeometry relative="1" as="geometry">
            <mxPoint x="250" y="135" as="targetPoint" />
          </mxGeometry>
        </mxCell>
        <mxCell id="Q-1Xya8EfabUiZOA57DP-0" value="Entrar a perfil" style="rounded=1;whiteSpace=wrap;html=1;fontSize=12;glass=0;strokeWidth=1;shadow=0;" vertex="1" parent="WIyWlLk6GJQsqaUBKTNV-1">
          <mxGeometry x="200" y="60" width="120" height="40" as="geometry" />
        </mxCell>
        <mxCell id="Q-1Xya8EfabUiZOA57DP-3" value="No" style="edgeStyle=orthogonalEdgeStyle;rounded=0;orthogonalLoop=1;jettySize=auto;html=1;" edge="1" parent="WIyWlLk6GJQsqaUBKTNV-1" source="Q-1Xya8EfabUiZOA57DP-2" target="Q-1Xya8EfabUiZOA57DP-4">
          <mxGeometry relative="1" as="geometry">
            <mxPoint x="420" y="290" as="targetPoint" />
          </mxGeometry>
        </mxCell>
        <mxCell id="Q-1Xya8EfabUiZOA57DP-10" value="Si" style="edgeStyle=orthogonalEdgeStyle;rounded=0;orthogonalLoop=1;jettySize=auto;html=1;" edge="1" parent="WIyWlLk6GJQsqaUBKTNV-1" source="Q-1Xya8EfabUiZOA57DP-2" target="Q-1Xya8EfabUiZOA57DP-9">
          <mxGeometry relative="1" as="geometry" />
        </mxCell>
        <mxCell id="Q-1Xya8EfabUiZOA57DP-2" value="¿Perfil pertenece al usuario?" style="rhombus;whiteSpace=wrap;html=1;shadow=0;fontFamily=Helvetica;fontSize=12;align=center;strokeWidth=1;spacing=6;spacingTop=-4;" vertex="1" parent="WIyWlLk6GJQsqaUBKTNV-1">
          <mxGeometry x="210" y="250" width="100" height="80" as="geometry" />
        </mxCell>
        <mxCell id="Q-1Xya8EfabUiZOA57DP-6" style="edgeStyle=orthogonalEdgeStyle;rounded=0;orthogonalLoop=1;jettySize=auto;html=1;entryX=0;entryY=0.5;entryDx=0;entryDy=0;" edge="1" parent="WIyWlLk6GJQsqaUBKTNV-1" source="Q-1Xya8EfabUiZOA57DP-4" target="Q-1Xya8EfabUiZOA57DP-5">
          <mxGeometry relative="1" as="geometry" />
        </mxCell>
        <mxCell id="Q-1Xya8EfabUiZOA57DP-24" style="edgeStyle=orthogonalEdgeStyle;rounded=0;orthogonalLoop=1;jettySize=auto;html=1;" edge="1" parent="WIyWlLk6GJQsqaUBKTNV-1" source="Q-1Xya8EfabUiZOA57DP-4" target="Q-1Xya8EfabUiZOA57DP-22">
          <mxGeometry relative="1" as="geometry" />
        </mxCell>
        <mxCell id="Q-1Xya8EfabUiZOA57DP-4" value="Ver perfil de tercero&lt;br&gt;" style="rounded=1;whiteSpace=wrap;html=1;fontSize=12;glass=0;strokeWidth=1;shadow=0;" vertex="1" parent="WIyWlLk6GJQsqaUBKTNV-1">
          <mxGeometry x="430" y="270" width="120" height="40" as="geometry" />
        </mxCell>
        <mxCell id="Q-1Xya8EfabUiZOA57DP-5" value="Reportar perfil" style="rounded=1;whiteSpace=wrap;html=1;fontSize=12;glass=0;strokeWidth=1;shadow=0;dashed=1;" vertex="1" parent="WIyWlLk6GJQsqaUBKTNV-1">
          <mxGeometry x="620" y="270" width="120" height="40" as="geometry" />
        </mxCell>
        <mxCell id="Q-1Xya8EfabUiZOA57DP-12" style="edgeStyle=orthogonalEdgeStyle;rounded=0;orthogonalLoop=1;jettySize=auto;html=1;" edge="1" parent="WIyWlLk6GJQsqaUBKTNV-1" source="Q-1Xya8EfabUiZOA57DP-9" target="Q-1Xya8EfabUiZOA57DP-11">
          <mxGeometry relative="1" as="geometry" />
        </mxCell>
        <mxCell id="Q-1Xya8EfabUiZOA57DP-23" style="edgeStyle=orthogonalEdgeStyle;rounded=0;orthogonalLoop=1;jettySize=auto;html=1;" edge="1" parent="WIyWlLk6GJQsqaUBKTNV-1" source="Q-1Xya8EfabUiZOA57DP-9" target="Q-1Xya8EfabUiZOA57DP-22">
          <mxGeometry relative="1" as="geometry" />
        </mxCell>
        <mxCell id="Q-1Xya8EfabUiZOA57DP-9" value="Ver perfil propio" style="rounded=1;whiteSpace=wrap;html=1;fontSize=12;glass=0;strokeWidth=1;shadow=0;" vertex="1" parent="WIyWlLk6GJQsqaUBKTNV-1">
          <mxGeometry x="200" y="440" width="120" height="40" as="geometry" />
        </mxCell>
        <mxCell id="Q-1Xya8EfabUiZOA57DP-13" style="edgeStyle=orthogonalEdgeStyle;rounded=0;orthogonalLoop=1;jettySize=auto;html=1;" edge="1" parent="WIyWlLk6GJQsqaUBKTNV-1" source="Q-1Xya8EfabUiZOA57DP-11" target="Q-1Xya8EfabUiZOA57DP-14">
          <mxGeometry relative="1" as="geometry">
            <mxPoint x="440" y="680" as="targetPoint" />
          </mxGeometry>
        </mxCell>
        <mxCell id="Q-1Xya8EfabUiZOA57DP-16" style="edgeStyle=orthogonalEdgeStyle;rounded=0;orthogonalLoop=1;jettySize=auto;html=1;entryX=0.5;entryY=0;entryDx=0;entryDy=0;" edge="1" parent="WIyWlLk6GJQsqaUBKTNV-1" source="Q-1Xya8EfabUiZOA57DP-11" target="Q-1Xya8EfabUiZOA57DP-15">
          <mxGeometry relative="1" as="geometry" />
        </mxCell>
        <mxCell id="Q-1Xya8EfabUiZOA57DP-20" style="edgeStyle=orthogonalEdgeStyle;rounded=0;orthogonalLoop=1;jettySize=auto;html=1;" edge="1" parent="WIyWlLk6GJQsqaUBKTNV-1" source="Q-1Xya8EfabUiZOA57DP-11" target="Q-1Xya8EfabUiZOA57DP-19">
          <mxGeometry relative="1" as="geometry" />
        </mxCell>
        <mxCell id="Q-1Xya8EfabUiZOA57DP-11" value="Modificar perfil" style="rounded=1;whiteSpace=wrap;html=1;fontSize=12;glass=0;strokeWidth=1;shadow=0;" vertex="1" parent="WIyWlLk6GJQsqaUBKTNV-1">
          <mxGeometry x="200" y="550" width="120" height="40" as="geometry" />
        </mxCell>
        <mxCell id="Q-1Xya8EfabUiZOA57DP-34" style="edgeStyle=orthogonalEdgeStyle;rounded=0;orthogonalLoop=1;jettySize=auto;html=1;" edge="1" parent="WIyWlLk6GJQsqaUBKTNV-1" source="Q-1Xya8EfabUiZOA57DP-14" target="Q-1Xya8EfabUiZOA57DP-36">
          <mxGeometry relative="1" as="geometry">
            <mxPoint x="474" y="810" as="targetPoint" />
          </mxGeometry>
        </mxCell>
        <mxCell id="Q-1Xya8EfabUiZOA57DP-14" value="Cambiar datos" style="rounded=1;whiteSpace=wrap;html=1;fontSize=12;glass=0;strokeWidth=1;shadow=0;" vertex="1" parent="WIyWlLk6GJQsqaUBKTNV-1">
          <mxGeometry x="350" y="680" width="120" height="40" as="geometry" />
        </mxCell>
        <mxCell id="Q-1Xya8EfabUiZOA57DP-26" style="edgeStyle=orthogonalEdgeStyle;rounded=0;orthogonalLoop=1;jettySize=auto;html=1;" edge="1" parent="WIyWlLk6GJQsqaUBKTNV-1" source="Q-1Xya8EfabUiZOA57DP-15" target="Q-1Xya8EfabUiZOA57DP-25">
          <mxGeometry relative="1" as="geometry" />
        </mxCell>
        <mxCell id="Q-1Xya8EfabUiZOA57DP-15" value="Subir o cambiar foto de perfil" style="rounded=1;whiteSpace=wrap;html=1;fontSize=12;glass=0;strokeWidth=1;shadow=0;" vertex="1" parent="WIyWlLk6GJQsqaUBKTNV-1">
          <mxGeometry x="60" y="680" width="120" height="40" as="geometry" />
        </mxCell>
        <mxCell id="Q-1Xya8EfabUiZOA57DP-18" style="edgeStyle=orthogonalEdgeStyle;rounded=0;orthogonalLoop=1;jettySize=auto;html=1;" edge="1" parent="WIyWlLk6GJQsqaUBKTNV-1" source="Q-1Xya8EfabUiZOA57DP-17" target="Q-1Xya8EfabUiZOA57DP-2">
          <mxGeometry relative="1" as="geometry" />
        </mxCell>
        <mxCell id="Q-1Xya8EfabUiZOA57DP-17" value="Leer datos de usuario en la BBDD según ID" style="rounded=1;whiteSpace=wrap;html=1;fontSize=12;glass=0;strokeWidth=1;shadow=0;" vertex="1" parent="WIyWlLk6GJQsqaUBKTNV-1">
          <mxGeometry x="200" y="170" width="120" height="40" as="geometry" />
        </mxCell>
        <mxCell id="Q-1Xya8EfabUiZOA57DP-32" style="edgeStyle=orthogonalEdgeStyle;rounded=0;orthogonalLoop=1;jettySize=auto;html=1;exitX=0.5;exitY=1;exitDx=0;exitDy=0;entryX=0.5;entryY=0;entryDx=0;entryDy=0;" edge="1" parent="WIyWlLk6GJQsqaUBKTNV-1" source="Q-1Xya8EfabUiZOA57DP-19" target="Q-1Xya8EfabUiZOA57DP-31">
          <mxGeometry relative="1" as="geometry" />
        </mxCell>
        <mxCell id="Q-1Xya8EfabUiZOA57DP-19" value="Borrar perfil" style="rounded=1;whiteSpace=wrap;html=1;fontSize=12;glass=0;strokeWidth=1;shadow=0;" vertex="1" parent="WIyWlLk6GJQsqaUBKTNV-1">
          <mxGeometry x="200" y="680" width="120" height="40" as="geometry" />
        </mxCell>
        <mxCell id="Q-1Xya8EfabUiZOA57DP-21" value="A primera instancia, no se tiene &lt;br&gt;contemplado que los puntos &lt;br&gt;creados por el usuario &lt;br&gt;se eliminen junto con él" style="text;html=1;align=center;verticalAlign=middle;resizable=0;points=[];autosize=1;strokeColor=#b85450;fillColor=#f8cecc;" vertex="1" parent="WIyWlLk6GJQsqaUBKTNV-1">
          <mxGeometry x="195" y="835" width="180" height="60" as="geometry" />
        </mxCell>
        <mxCell id="Q-1Xya8EfabUiZOA57DP-22" value="Ir a pantalla de mapa principal" style="rounded=1;whiteSpace=wrap;html=1;fontSize=12;glass=0;strokeWidth=1;shadow=0;dashed=1;" vertex="1" parent="WIyWlLk6GJQsqaUBKTNV-1">
          <mxGeometry x="430" y="440" width="120" height="40" as="geometry" />
        </mxCell>
        <mxCell id="Q-1Xya8EfabUiZOA57DP-27" value="Si" style="edgeStyle=orthogonalEdgeStyle;rounded=0;orthogonalLoop=1;jettySize=auto;html=1;" edge="1" parent="WIyWlLk6GJQsqaUBKTNV-1" source="Q-1Xya8EfabUiZOA57DP-25" target="Q-1Xya8EfabUiZOA57DP-28">
          <mxGeometry relative="1" as="geometry">
            <mxPoint x="120" y="1020" as="targetPoint" />
          </mxGeometry>
        </mxCell>
        <mxCell id="Q-1Xya8EfabUiZOA57DP-25" value="¿La aplicación tiene permiso de lectura de almacenamiento del dispositivo?" style="rhombus;whiteSpace=wrap;html=1;shadow=0;fontFamily=Helvetica;fontSize=12;align=center;strokeWidth=1;spacing=6;spacingTop=-4;" vertex="1" parent="WIyWlLk6GJQsqaUBKTNV-1">
          <mxGeometry x="45" y="780" width="150" height="140" as="geometry" />
        </mxCell>
        <mxCell id="Q-1Xya8EfabUiZOA57DP-30" style="edgeStyle=orthogonalEdgeStyle;rounded=0;orthogonalLoop=1;jettySize=auto;html=1;" edge="1" parent="WIyWlLk6GJQsqaUBKTNV-1" source="Q-1Xya8EfabUiZOA57DP-28" target="Q-1Xya8EfabUiZOA57DP-29">
          <mxGeometry relative="1" as="geometry" />
        </mxCell>
        <mxCell id="Q-1Xya8EfabUiZOA57DP-28" value="Subir imagen a Firebase Storage" style="rounded=1;whiteSpace=wrap;html=1;fontSize=12;glass=0;strokeWidth=1;shadow=0;" vertex="1" parent="WIyWlLk6GJQsqaUBKTNV-1">
          <mxGeometry x="60" y="1040" width="120" height="40" as="geometry" />
        </mxCell>
        <mxCell id="Q-1Xya8EfabUiZOA57DP-29" value="Guardar url de imagen en el objeto correspondiente al usuario en la BBDD" style="rounded=1;whiteSpace=wrap;html=1;fontSize=12;glass=0;strokeWidth=1;shadow=0;" vertex="1" parent="WIyWlLk6GJQsqaUBKTNV-1">
          <mxGeometry x="55" y="1140" width="130" height="60" as="geometry" />
        </mxCell>
        <mxCell id="Q-1Xya8EfabUiZOA57DP-31" value="Eliminar usuario de la BBDD" style="rounded=1;whiteSpace=wrap;html=1;fontSize=12;glass=0;strokeWidth=1;shadow=0;" vertex="1" parent="WIyWlLk6GJQsqaUBKTNV-1">
          <mxGeometry x="200" y="770" width="120" height="40" as="geometry" />
        </mxCell>
        <mxCell id="Q-1Xya8EfabUiZOA57DP-35" value="Actualizar datos en la BBDD de usuario" style="rounded=1;whiteSpace=wrap;html=1;fontSize=12;glass=0;strokeWidth=1;shadow=0;" vertex="1" parent="WIyWlLk6GJQsqaUBKTNV-1">
          <mxGeometry x="404" y="970" width="120" height="40" as="geometry" />
        </mxCell>
        <mxCell id="Q-1Xya8EfabUiZOA57DP-37" value="No" style="edgeStyle=orthogonalEdgeStyle;rounded=0;orthogonalLoop=1;jettySize=auto;html=1;" edge="1" parent="WIyWlLk6GJQsqaUBKTNV-1" source="Q-1Xya8EfabUiZOA57DP-36" target="Q-1Xya8EfabUiZOA57DP-35">
          <mxGeometry relative="1" as="geometry" />
        </mxCell>
        <mxCell id="Q-1Xya8EfabUiZOA57DP-40" value="Sí" style="edgeStyle=orthogonalEdgeStyle;rounded=0;orthogonalLoop=1;jettySize=auto;html=1;entryX=0;entryY=0.5;entryDx=0;entryDy=0;" edge="1" parent="WIyWlLk6GJQsqaUBKTNV-1" source="Q-1Xya8EfabUiZOA57DP-36" target="Q-1Xya8EfabUiZOA57DP-39">
          <mxGeometry relative="1" as="geometry" />
        </mxCell>
        <mxCell id="Q-1Xya8EfabUiZOA57DP-36" value="¿Cambio de contraseña?" style="rhombus;whiteSpace=wrap;html=1;shadow=0;fontFamily=Helvetica;fontSize=12;align=center;strokeWidth=1;spacing=6;spacingTop=-4;" vertex="1" parent="WIyWlLk6GJQsqaUBKTNV-1">
          <mxGeometry x="414" y="810" width="100" height="80" as="geometry" />
        </mxCell>
        <mxCell id="Q-1Xya8EfabUiZOA57DP-39" value="Cambiar contraseña en Firebase Authentication" style="rounded=1;whiteSpace=wrap;html=1;fontSize=12;glass=0;strokeWidth=1;shadow=0;" vertex="1" parent="WIyWlLk6GJQsqaUBKTNV-1">
          <mxGeometry x="610" y="830" width="120" height="40" as="geometry" />
        </mxCell>
      </root>
    </mxGraphModel>
  </diagram>
</mxfile>
